<svg
  viewBox="0 0 64 33.3"
  xmlns="http://www.w3.org/2000/svg"
  fill-rule="evenodd"
  clip-rule="evenodd"
  stroke-linejoin="round"
  stroke-miterlimit="2"
  width="64"
  height="33.3"
>
  <path
    d="M16.719,32.697l0,-32l30.343,-0c1.061,-0 2.079,0.421 2.829,1.171l12,12c1.562,1.562 1.562,4.095 -0,5.657l-12,12c-0.75,0.75 -1.768,1.172 -2.829,1.172l-27.343,-0Z"
    fill="#00A751"
    stroke="#000"
    transform=""
  />
  <path
    d="M0.719,2.694c0,-1.104 0.896,-2 2,-2l14,0l0,32.003l-14,-0c-1.104,-0 -2,-0.896 -2,-2l0,-28.003Z"
    fill="#fff"
    fill-rule="nonzero"
    stroke="#000"
    transform=""
  />
  <g
    transform=""
  >
    <path
      d="M11.9,10.914c0.043,0.132 0.071,0.236 0.082,0.313c0.011,0.077 -0.004,0.134 -0.044,0.173c-0.04,0.038 -0.112,0.062 -0.214,0.071c-0.102,0.009 -0.243,0.014 -0.422,0.014c-0.187,-0 -0.332,-0.003 -0.436,-0.009c-0.104,-0.005 -0.184,-0.016 -0.239,-0.032c-0.054,-0.017 -0.093,-0.04 -0.115,-0.069c-0.022,-0.029 -0.04,-0.068 -0.055,-0.115l-0.477,-1.426l-2.664,-0l-0.45,1.387c-0.015,0.052 -0.034,0.095 -0.058,0.129c-0.023,0.035 -0.062,0.062 -0.115,0.083c-0.053,0.02 -0.128,0.033 -0.224,0.041c-0.097,0.007 -0.224,0.011 -0.382,0.011c-0.168,-0 -0.299,-0.006 -0.394,-0.017c-0.095,-0.011 -0.161,-0.037 -0.198,-0.079c-0.036,-0.042 -0.049,-0.102 -0.038,-0.179c0.011,-0.076 0.038,-0.179 0.082,-0.307l2.188,-6.297c0.022,-0.062 0.047,-0.112 0.077,-0.151c0.029,-0.038 0.076,-0.067 0.139,-0.087c0.064,-0.02 0.153,-0.033 0.266,-0.039c0.114,-0.005 0.264,-0.008 0.45,-0.008c0.216,0 0.387,0.003 0.515,0.008c0.128,0.006 0.228,0.019 0.299,0.039c0.072,0.02 0.123,0.05 0.154,0.09c0.031,0.04 0.057,0.095 0.079,0.165l2.194,6.291Zm-3.257,-5.205l-0.006,-0l-1.003,3.017l2.012,-0l-1.003,-3.017Z"
      fill="#000"
      fill-rule="nonzero"
    />
    <path
      d="M8.16,15.065l0,4.714c0,0.311 0.252,0.562 0.562,0.562c0.311,0 0.562,-0.251 0.562,-0.562l0,-4.714l0.643,0.642c0.219,0.22 0.575,0.22 0.795,0c0.219,-0.219 0.219,-0.575 -0,-0.794l-1.602,-1.602c-0.22,-0.22 -0.575,-0.22 -0.795,-0l-1.602,1.602c-0.219,0.219 -0.219,0.575 0,0.794c0.22,0.22 0.576,0.22 0.795,0l0.642,-0.642Z"
      fill="#000"
    />
    <path
      d="M11.487,23.033c0,0.104 -0.004,0.195 -0.012,0.27c-0.009,0.076 -0.02,0.137 -0.035,0.182c-0.015,0.045 -0.034,0.077 -0.055,0.095c-0.022,0.018 -0.048,0.027 -0.078,0.027c-0.043,-0 -0.113,-0.033 -0.21,-0.098c-0.097,-0.065 -0.225,-0.135 -0.386,-0.211c-0.16,-0.076 -0.351,-0.146 -0.573,-0.211c-0.222,-0.065 -0.479,-0.098 -0.773,-0.098c-0.314,0 -0.597,0.059 -0.851,0.176c-0.253,0.118 -0.47,0.284 -0.65,0.498c-0.181,0.215 -0.319,0.473 -0.416,0.775c-0.097,0.301 -0.145,0.634 -0.145,0.999c0,0.4 0.049,0.753 0.148,1.058c0.098,0.305 0.236,0.561 0.413,0.766c0.176,0.206 0.389,0.361 0.638,0.466c0.248,0.105 0.523,0.157 0.823,0.157c0.147,0 0.292,-0.018 0.435,-0.054c0.144,-0.036 0.277,-0.09 0.401,-0.163l-0,-1.624l-1.226,0c-0.06,0 -0.107,-0.04 -0.14,-0.122c-0.034,-0.081 -0.051,-0.219 -0.051,-0.414c0,-0.101 0.005,-0.186 0.013,-0.254c0.008,-0.069 0.021,-0.124 0.038,-0.166c0.016,-0.041 0.036,-0.072 0.06,-0.092c0.023,-0.019 0.05,-0.029 0.08,-0.029l2.187,-0c0.053,-0 0.101,0.01 0.142,0.029c0.042,0.02 0.079,0.05 0.111,0.09c0.031,0.039 0.055,0.087 0.072,0.143c0.017,0.056 0.025,0.12 0.025,0.192l0,2.789c0,0.108 -0.017,0.203 -0.052,0.284c-0.035,0.081 -0.107,0.145 -0.216,0.192c-0.108,0.047 -0.242,0.096 -0.402,0.147c-0.161,0.05 -0.327,0.093 -0.498,0.129c-0.172,0.037 -0.346,0.064 -0.521,0.082c-0.175,0.018 -0.351,0.027 -0.528,0.027c-0.517,-0 -0.98,-0.081 -1.389,-0.241c-0.409,-0.161 -0.755,-0.394 -1.038,-0.699c-0.284,-0.305 -0.501,-0.676 -0.651,-1.115c-0.15,-0.439 -0.225,-0.936 -0.225,-1.492c-0,-0.574 0.08,-1.089 0.24,-1.545c0.16,-0.457 0.387,-0.845 0.681,-1.165c0.293,-0.319 0.648,-0.564 1.063,-0.733c0.416,-0.17 0.879,-0.255 1.389,-0.255c0.28,0 0.536,0.021 0.766,0.063c0.23,0.041 0.431,0.092 0.603,0.151c0.172,0.06 0.314,0.124 0.428,0.192c0.113,0.069 0.193,0.129 0.238,0.179c0.045,0.051 0.077,0.122 0.097,0.214c0.02,0.092 0.03,0.228 0.03,0.409Z"
      fill-rule="nonzero"
    />
  </g>
  <text
    x="33.5"
    y="50%"
    dy="0.33em"
    font-family="'Calibri-Bold', 'Calibri', 'Arial', sans-serif"
    text-anchor="middle"
    font-weight="700"
    font-size="24"
    fill="#fff"
    stroke="#000"
    stroke-width=".5"
  >
    A
  </text>
</svg>
