<?xml version="1.0" encoding="UTF-8"?><svg id="a" xmlns="http://www.w3.org/2000/svg" viewBox="0 0 500 500"><defs><style>.f{fill:#fff;}.g{fill:#df1523;}</style></defs><g id="b"><circle id="c" class="f" cx="250.23373" cy="251.48956" r="244.25881"/><g id="d"><path id="e" class="g" d="m250.23373,7.23075C115.13751,7.23075,5.97492,116.59437,5.97492,251.48956c0,103.53357,64.33154,191.98943,155.19983,227.57281-2.21139-19.29947-4.02072-49.05279.80415-70.1616,4.42279-19.09843,28.54711-121.42577,28.54711-121.42577,0,0-7.23729-14.67564-7.23729-36.18649,0-33.9751,19.70154-59.30564,44.22793-59.30564,20.90775,0,30.95956,15.68082,30.95956,34.37716,0,20.90775-13.26838,52.26939-20.30464,81.41962-5.83005,24.32538,12.2632,44.22793,36.18651,44.22793,43.4238,0,76.79577-45.83623,76.79577-111.77604,0-58.50149-42.01652-99.31182-102.12632-99.31182-69.55847,0-110.3688,52.06834-110.3688,105.946,0,20.90774,8.04144,43.4238,18.09325,55.68698,2.01036,2.41243,2.21139,4.62384,1.60829,7.03626-1.80933,7.63938-6.03108,24.32538-6.83523,27.74298-1.00518,4.42279-3.61866,5.42797-8.24248,3.21659-30.15541-14.47459-49.0528-59.10459-49.0528-94.88901,0-76.99682,55.88803-147.7615,161.43196-147.7615,84.63616,0,150.57603,60.31082,150.57603,141.12731,0,84.23413-53.07351,151.98324-126.65272,151.98324-24.72744,0-48.04762-12.8663-55.88803-28.14505,0,0-12.2632,46.64036-15.27874,58.09941-5.42797,21.30983-20.30464,47.84659-30.35644,64.13049,22.91811,7.03626,47.04244,10.85593,72.37298,10.85593,134.89521,0,244.25881-109.3636,244.25881-244.25881-.20105-135.09618-109.56468-244.4598-244.45987-244.4598Z"/></g></g></svg>