<?xml version="1.0" encoding="UTF-8"?><svg id="a" xmlns="http://www.w3.org/2000/svg" viewBox="0 0 500 500"><defs><style>.b{fill:#e9234c;}.c{fill:#fff;}.d{fill:#60c0c7;}</style></defs><circle cx="248.59896" cy="252.35859" r="244.34982"/><path class="b" d="m122.91877,356.92364l.94174,2.7075c-.11772-.29429-.47087-1.23603-.94174-2.7075Zm38.1992-61.74262c1.70689-14.65578,7.47504-22.83711,18.30501-31.25389,15.53865-11.35969,34.90311-4.94411,34.90311-4.94411v-38.1992c4.70868-.11772,9.41737.17657,14.06719.88288v49.14689s-19.36446-6.41558-34.90311,4.94411c-10.82997,8.41677-16.59812,16.59812-18.30501,31.25389-.05886,7.9459,1.35374,18.36388,7.9459,27.31036-1.64803-.88288-3.29608-1.88348-5.00298-3.00179-14.42035-10.12368-17.06898-25.36804-17.01012-36.13915Zm147.38181-145.02747c-10.6534-12.18372-14.71464-24.54401-16.1861-33.19622h13.41974s-2.64863,22.7194,16.83353,45.0268l.29429.29429c-5.29727-3.4138-10.12368-7.5339-14.36148-12.12487h.00002Zm64.68556,34.60883v48.1463s-17.12782-.70631-29.84129-4.06124c-17.71641-4.70868-29.07614-11.94828-29.07614-11.94828,0,0-7.88704-5.17955-8.47563-5.5327v99.47095c0,5.5327-1.47146,19.36446-5.88586,30.90074-5.76813,15.06779-14.71464,25.01487-16.36267,27.01607,0,0-10.88883,13.41974-30.01786,22.42509-17.24555,8.12247-32.43107,7.9459-36.96316,8.12247,0,0-26.19206,1.05945-49.79434-14.89121-5.1207-3.53151-9.88824-7.53389-14.24377-11.94828l.11772.11772c23.60228,16.00953,49.79434,14.89121,49.79434,14.89121,4.53212-.17657,19.71761,0,36.96316-8.12247,19.12903-9.00535,30.01786-22.42511,30.01786-22.42511,1.64803-2.00119,10.59454-11.94828,16.36267-27.01607,4.41439-11.53628,5.88586-25.36804,5.88586-30.90074v-99.41209c.64745.35315,8.47563,5.5327,8.47563,5.5327,0,0,11.35969,7.2396,29.07614,11.94828,12.71343,3.35494,29.84129,4.06124,29.84129,4.06124v-37.72834c5.88586,1.35375,10.88883,1.70689,14.12605,1.35375Z"/><path class="c" d="m359.05928,183.34978v37.72834s-17.12782-.70631-29.84129-4.06124c-17.71641-4.70868-29.07612-11.94829-29.07612-11.94829,0,0-7.88704-5.17955-8.47563-5.5327v99.47096c0,5.5327-1.47146,19.36446-5.88586,30.90074-5.76813,15.06779-14.71464,25.01488-16.36267,27.01607,0,0-10.88883,13.41976-30.01786,22.42511-17.24555,8.12247-32.43107,7.9459-36.96316,8.12247,0,0-26.19206,1.05945-49.79434-14.89121l-.11772-.11772c-2.47206-2.53091-4.8264-5.17955-7.00416-7.9459-7.5339-9.59394-12.12487-20.89479-13.30204-24.13201v-.05886c-1.88347-5.59156-5.76814-19.12903-5.23841-32.13677.94174-23.0137,8.71107-37.19861,10.77112-40.73012,5.41498-9.6528,12.53687-18.30501,20.89479-25.54461,7.41618-6.23901,15.83295-11.24199,24.83832-14.71464,9.77052-4.1201,20.24734-6.29787,30.84188-6.47444v38.1992s-19.36446-6.41558-34.90311,4.94411c-10.82997,8.41677-16.59812,16.59812-18.30501,31.25389-.05886,10.77111,2.58977,26.01549,17.06898,36.19801,1.70689,1.11831,3.35494,2.11891,5.00298,3.00179,2.53091,3.41379,5.59156,6.41558,9.12308,8.88764,14.18491,9.35851,26.01549,10.00595,41.20099,3.94353,10.12368-4.06124,17.71643-13.18431,21.24794-23.36685,2.23662-6.35672,2.17777-12.71345,2.17777-19.3056V116.95734h35.31513c1.47146,8.65221,5.47384,21.0125,16.1861,33.19622,4.29667,4.59097,9.12308,8.71107,14.3615,12.12487,1.53031,1.70689,9.47621,9.94709,19.71761,15.06779,5.23843,2.64863,10.82999,4.64982,16.53924,6.00357h-.00004Z"/><path class="d" d="m118.15122,328.7304l.88288,2.53091c-.11772-.29429-.47087-1.17717-.88288-2.53091Z"/><path class="d" d="m183.48421,227.25826c-9.06421,3.47265-17.42213,8.47563-24.83832,14.71464-8.41677,7.23959-15.4798,15.95067-20.89479,25.60347-2.06005,3.53151-9.82938,17.65757-10.77112,40.73012-.52972,13.06661,3.4138,26.54521,5.23841,32.13677v.05886c1.17717,3.17836,5.76814,14.53807,13.30204,24.13201,2.17776,2.76636,4.53211,5.41499,7.00416,7.9459-8.00477-5.53272-15.06779-12.18373-21.13023-19.77648-7.47503-9.47623-12.066-20.71822-13.24317-24.01428v-.11772c-1.88347-5.59156-5.82699-19.12903-5.23841-32.19563.94174-23.0137,8.71107-37.19861,10.77112-40.73011,5.41498-9.6528,12.47801-18.36388,20.89479-25.60347,7.41618-6.23901,15.83296-11.24199,24.83831-14.71464,5.65042-2.35434,11.53628-4.06124,17.53984-5.17955,9.06421-1.58918,18.30501-1.70689,27.42809-.41201v10.94769c-10.6534.17657-21.13022,2.35434-30.90074,6.47444l.00002-.00002Z"/><path class="d" d="m292.31367,116.95734h-35.31513v187.52335c0,6.59216,0,12.94888-2.17777,19.3056-3.59038,10.12368-11.18312,19.3056-21.24794,23.36685-15.1855,6.12129-27.07493,5.41499-41.20099-3.94353-3.53151-2.4132-6.59216-5.41499-9.12308-8.82878,12.066,6.41558,22.83711,6.29787,36.19801.94174,10.12368-4.06124,17.71643-13.24317,21.24794-23.36685,2.23662-6.35672,2.17777-12.71345,2.17777-19.3056V105.12677h48.79374c-.05886,0-.58859,4.64983.64745,11.83057Zm66.74561,55.97448v10.41796c-5.70929-1.35375-11.30085-3.35494-16.53924-6.00357-10.18252-5.06184-18.12843-13.36089-19.71761-15.06779,1.8246,1.17717,3.64924,2.23663,5.59156,3.23722,12.47802,6.18015,24.66175,8.06362,30.66529,7.41618Z"/></svg>