<?xml version="1.0" encoding="UTF-8"?><svg id="a" xmlns="http://www.w3.org/2000/svg" viewBox="0 0 500 500"><defs><style>.b{fill:#fc181d;}.c{fill:#fff;}</style></defs><circle class="b" cx="248.96675" cy="250.46172" r="244.34982"/><path class="c" d="m401.2628,173.45353c-3.65603-13.7653-14.42633-24.60605-28.10494-28.2851-24.78756-6.68623-124.19111-6.68623-124.19111-6.68623,0,0-99.4022,0-124.19112,6.68623-13.6786,3.67905-24.45162,14.5198-28.10494,28.2851-6.64153,24.95011-6.64153,77.00819-6.64153,77.00819,0,0,0,52.05537,6.64153,77.00819,3.65332,13.76665,14.42634,24.60469,28.10359,28.2878,24.78891,6.68353,124.19112,6.68353,124.19112,6.68353,0,0,99.40355,0,124.19112-6.68353,13.67859-3.68177,24.44891-14.52116,28.10494-28.28646,6.6429-24.95282,6.6429-77.00819,6.6429-77.00819,0,0,0-52.05808-6.6429-77.00819"/><path class="b" d="m216.45668,297.72592l83.0808-47.26149-83.0808-47.26691v94.5284Z"/></svg>