<svg width="33" height="18" xmlns="http://www.w3.org/2000/svg"><g fill-rule="nonzero" fill="none"><path fill="#BFD730" d="M24.755.256H7.13v17.475h17.625l8.033-8.739z"/><path d="M24.605 0H.388A.256.256 0 0 0 .13.256v17.475A.257.257 0 0 0 .387 18H24.58c.071 0 .14-.03.188-.081l8.033-8.75a.256.256 0 0 0 0-.349L24.768.073A.27.27 0 0 0 24.605 0zm-.025 17.744H.388V.256H24.59l8.023 8.74-8.033 8.748z" fill="#231F20"/><path d="m2.132 5.768.537-1.488h1.965l.503 1.488h.737L4.073.8h-.761l-1.87 4.967h.69zm2.285-2.035H2.862l.801-2.195.754 2.195z" fill="#000"/><path d="m3.875 6.89.03.026.987.987a.347.347 0 0 1-.46.518l-.03-.027-.396-.396v2.906a.347.347 0 0 1-.69.038l-.003-.038V7.996l-.399.398a.347.347 0 0 1-.46.026l-.03-.027a.347.347 0 0 1-.026-.46l.027-.03.99-.987a.347.347 0 0 1 .46-.027z" fill="#1C1A00"/><path d="M3.606 17.07c.416 0 .758-.077 1.028-.23.16-.088.344-.246.552-.474l.148.583h.395v-2.426H3.74v.51h1.42c-.007.53-.144.914-.413 1.152-.268.238-.607.357-1.017.357-.535 0-.92-.17-1.157-.508-.237-.339-.355-.777-.355-1.316 0-.624.144-1.093.43-1.408.288-.315.641-.472 1.06-.472.355 0 .648.076.88.227.233.151.386.392.46.724h.608c-.1-.593-.376-1.008-.827-1.244-.31-.165-.679-.247-1.105-.247-.621 0-1.127.214-1.518.642-.412.448-.618 1.052-.618 1.811 0 .762.211 1.36.633 1.797.387.347.849.521 1.386.521z" fill="#000"/><path d="M20.855 12.492a1.49 1.49 0 0 0-.05-.3.27.27 0 0 0-.083-.142.22.22 0 0 0-.134-.037.587.587 0 0 0-.3.141 5.827 5.827 0 0 1-.494.32c-.23.133-.47.241-.72.326a3.03 3.03 0 0 1-.995.145 2.66 2.66 0 0 1-1.14-.237 2.252 2.252 0 0 1-.862-.716 3.513 3.513 0 0 1-.545-1.21 7.025 7.025 0 0 1-.2-1.761 7.025 7.025 0 0 1 .179-1.665c.102-.444.28-.867.529-1.249.21-.327.496-.601.832-.799.346-.19.737-.286 1.132-.279.337-.008.672.044.99.154.25.09.49.206.716.346.17.105.335.22.491.345a.55.55 0 0 0 .312.154c.05 0 .098-.019.134-.054a.416.416 0 0 0 .1-.17c.031-.099.051-.201.058-.304v-.87a2.597 2.597 0 0 0-.038-.291.832.832 0 0 0-.025-.217 1.02 1.02 0 0 0-.154-.2 1.906 1.906 0 0 0-.39-.29c-.2-.12-.41-.22-.63-.3a4.903 4.903 0 0 0-.76-.209 4.914 4.914 0 0 0-2.86.337 4.25 4.25 0 0 0-1.557 1.174 5.544 5.544 0 0 0-1.01 1.915 8.586 8.586 0 0 0-.363 2.605 8.74 8.74 0 0 0 .329 2.526c.187.662.508 1.278.945 1.81.403.479.915.853 1.494 1.09.623.25 1.29.372 1.96.363a5.265 5.265 0 0 0 1.898-.345 4.07 4.07 0 0 0 .632-.309c.128-.071.245-.16.35-.262a.961.961 0 0 0 .133-.183.832.832 0 0 0 .067-.191 2.08 2.08 0 0 0 .037-.267v-.378a3.937 3.937 0 0 0-.008-.516z" fill="#FFF"/></g></svg>
