<svg width="33" height="18" xmlns="http://www.w3.org/2000/svg"><g fill-rule="nonzero" fill="none"><path fill="#50B848" d="M24.755.256H7.13v17.475h17.625l8.033-8.739z"/><path d="M24.605 0H.388A.256.256 0 0 0 .13.256v17.475A.257.257 0 0 0 .387 18H24.58c.071 0 .14-.03.188-.081l8.033-8.75a.256.256 0 0 0 0-.349L24.768.073A.27.27 0 0 0 24.605 0zm-.025 17.744H.388V.256H24.59l8.023 8.74-8.033 8.748z" fill="#231F20"/><path d="m2.208 5.768.538-1.488H4.71l.504 1.488h.737L4.149.8h-.76l-1.87 4.967h.69zm2.286-2.035H2.939l.8-2.195.755 2.195z" fill="#000"/><path d="m3.951 6.89.03.026.988.987a.347.347 0 0 1-.46.518l-.03-.027-.396-.396v2.906a.347.347 0 0 1-.692.038l-.002-.038V7.996l-.398.398a.347.347 0 0 1-.46.026l-.03-.027a.347.347 0 0 1-.027-.46l.027-.03.99-.987a.347.347 0 0 1 .46-.027z" fill="#1C1A00"/><path d="M3.682 17.07c.416 0 .758-.077 1.028-.23.16-.088.345-.246.552-.474l.149.583h.395v-2.426H3.815v.51h1.42c-.007.53-.144.914-.412 1.152-.269.238-.608.357-1.017.357-.535 0-.921-.17-1.158-.508-.236-.339-.355-.777-.355-1.316 0-.624.144-1.093.43-1.408.288-.315.641-.472 1.061-.472.354 0 .647.076.88.227.232.151.385.392.46.724h.608c-.101-.593-.377-1.008-.828-1.244-.31-.165-.679-.247-1.104-.247-.622 0-1.128.214-1.519.642-.411.448-.617 1.052-.617 1.811 0 .762.21 1.36.632 1.797.387.347.85.521 1.386.521z" fill="#000"/><path d="M18.512 12.159a1.43 1.43 0 0 1-.366.516c-.16.14-.347.247-.55.313-.254.078-.52.114-.786.108h-1.616V9.714h1.328c.335-.008.67.032.993.12.23.068.445.183.627.34.166.15.294.337.374.546.089.236.132.486.129.739a1.77 1.77 0 0 1-.133.7zm-.529-5.178a1.328 1.328 0 0 1-.76.847c-.247.092-.51.134-.774.124h-1.246v-3.09h1.13c.28-.008.56.027.83.104.19.057.366.155.515.288.139.13.243.292.305.472.071.208.106.426.103.645a1.99 1.99 0 0 1-.103.61zm2.81 3.3a2.819 2.819 0 0 0-.464-.86 2.5 2.5 0 0 0-.687-.592 2.763 2.763 0 0 0-.86-.322 2.329 2.329 0 0 0 1.126-.937c.133-.215.233-.448.297-.692a3.15 3.15 0 0 0 .103-.812 3.244 3.244 0 0 0-.254-1.34 2.42 2.42 0 0 0-.734-.942 3.24 3.24 0 0 0-1.182-.554 6.845 6.845 0 0 0-1.719-.185h-2.733a.662.662 0 0 0-.473.18.77.77 0 0 0-.193.585v10.364a.77.77 0 0 0 .193.585.662.662 0 0 0 .473.184h2.918c.403.004.805-.025 1.203-.085a4.954 4.954 0 0 0 1.014-.271c.305-.12.594-.277.86-.469a2.97 2.97 0 0 0 .678-.678 3.18 3.18 0 0 0 .43-.911c.11-.373.164-.76.16-1.148a3.304 3.304 0 0 0-.16-1.1h.004z" fill="#FFF"/></g></svg>
